<svg width="1366" height="1003" viewBox="0 0 1366 1003" fill="none" xmlns="http://www.w3.org/2000/svg">
<path d="M830.5 866.5L1366 331V0L830.5 535.5V866.5Z" fill="#F9D5BB"/>
<path d="M1115 969L1367 716.855V561L1115 813.145V969Z" fill="#F9D5BB"/>
<path opacity="0.5" d="M1115 1003L1367 750.855V595L1115 847.145V1003Z" fill="#F9D5BB"/>
<path d="M349 605.048L0 255.846V40L349 389.201V605.048Z" fill="#F9D5BB"/>
<path opacity="0.5" d="M349 663.214L0 314.013V98.1667L349 447.368V663.214Z" fill="#F9D5BB"/>
<path fill-rule="evenodd" clip-rule="evenodd" d="M0 854.279C8.72132 856.063 17.7512 857 27 857C101.006 857 161 797.006 161 723C161 648.994 101.006 589 27 589C17.7512 589 8.72132 589.937 0 591.721V854.279Z" fill="#F9D5BB"/>
<path opacity="0.4" fill-rule="evenodd" clip-rule="evenodd" d="M0 877.279C8.72132 879.063 17.7512 880 27 880C101.006 880 161 820.006 161 746C161 671.994 101.006 612 27 612C17.7512 612 8.72132 612.937 0 614.721V877.279Z" fill="#F9D5BB"/>
<path opacity="0.5" d="M830.5 923.5L1366 388V57L830.5 592.5V923.5Z" fill="#F9D5BB"/>
</svg>
