<svg width="1366" height="438" viewBox="0 0 1366 438" fill="none" xmlns="http://www.w3.org/2000/svg">
<path d="M733.767 157.106C909.33 13.7839 1313.98 77.7021 1366 40V259.5C1214.11 245.889 884.321 193.856 707.757 337.995C509.154 500.126 170.729 342.214 0 337.995V177.114C82.53 170.445 531.03 322.612 733.767 157.106Z" fill="#F9D5BB"/>
<path opacity="0.5" d="M733.767 117.106C909.33 -26.2161 1313.98 37.7021 1366 0V219.5C1214.11 205.889 884.321 153.856 707.757 297.995C509.154 460.126 170.729 302.214 0 297.995V137.114C82.53 130.445 531.03 282.612 733.767 117.106Z" fill="#F9D5BB"/>
<path d="M733.767 151.995C909.33 -8.32534 1313.98 63.1735 1366 21V266.532C1214.11 251.307 884.321 193.103 707.757 354.337C509.154 535.696 170.729 359.056 0 354.337V174.376C82.53 166.916 531.03 337.129 733.767 151.995Z" stroke="#F9D5BB" stroke-width="4"/>
</svg>
